# xmcd
#
# Track frame offsets:
#	150
#	10973
#	23795
#	36791
#	49354
#	62319
#	73577
#	87133
#	98908
#	110779
#	122268
#	132787
#	145001
#	156016
#	168146
#	180360
#	192551
#	203592
#	215070
#	228902
#
# Disc length: 3193 seconds
#
# Revision: 2
# Processed by: cddbd v1.5.2PL0 Copyright (c) Steve Scherf et al.
# Submitted via: audiograbber 1.83.01
#
DISCID=080c7714
DTITLE=Jim Reeves - Exclusieve Collection - Just Call Me Lonesome
DYEAR=1900
DGENRE=Country
TTITLE0=Beatin' On A Ding Dong
TTITLE1=Bimbo
TTITLE2=Butterfly Love
TTITLE3=Drinking Tequila
TTITLE4=Echo Bonita
TTITLE5=El Rancho Del Rio
TTITLE6=I Could Cry
TTITLE7=If You Love Me Don'tLeave Me
TTITLE8=I'll  Follow You
TTITLE9=It's Hard To Love Just One
TTITLE10=Just Call Me Lonesome
TTITLE11=Mexican Joe
TTITLE12=My Rambling Heart
TTITLE13=Padre Of Old San Antone
TTITLE14=Mother Went A - Walkin
TTITLE15=The Wilder Your Heart Beats The Sweeter You Love
TTITLE16=Then I'll Stop Loving You
TTITLE17=Wagon Load Of Love
TTITLE18=What Were You Doing Last Night
TTITLE19=Where Does A Broken Heart Go
EXTD=
EXTT0=
EXTT1=
EXTT2=
EXTT3=
EXTT4=
EXTT5=
EXTT6=
EXTT7=
EXTT8=
EXTT9=
EXTT10=
EXTT11=
EXTT12=
EXTT13=
EXTT14=
EXTT15=
EXTT16=
EXTT17=
EXTT18=
EXTT19=
PLAYORDER=
